{"title":"Clash.Of.The.Titans.3D.DVDRip.XviD-VAMPS","uid":5824991,"size":1467992822,"categoryP":"video","categoryS":"movies","magnet":"?xt=urn:btih:6187dbd44e26a45de4bdec068cb017fd3116c982&amp;dn=Clash.Of.The.Titans.3D.DVDRip.XviD-VAMPS&amp;tr=udp%3A%2F%2Ftracker.openbittorrent.com%3A80&amp;tr=udp%3A%2F%2Fopen.demonii.com%3A1337&amp;tr=udp%3A%2F%2Ftracker.coppersurfer.tk%3A6969&amp;tr=udp%3A%2F%2Fexodus.desync.com%3A6969","seeders":0,"leechers":0,"uploader":"TvTeam","files":5,"time":1284225191,"description":". \n  &lt;a href=&quot;\nhttp://www.torrentday.com/&quot; rel=&quot;nofollow&quot; target=&quot;_NEW&quot;&gt;\nhttp://www.torrentday.com/&lt;/a&gt;        :     The Hottest Private Tracker On The Net!!!\n\n\n               www . TorrentDay . Com \n(((((((((((((= Enjoy No RAR releases =))))))))))))))))))))\n\n\n...................................NFO:....................................\n\n.VAMPS:\n\nClash of the Titans (2010) 3D VERSION &lt;a href=&quot;\nhttp://www.imdb.com/title/tt0800320/&quot; rel=&quot;nofollow&quot; target=&quot;_NEW&quot;&gt;\nhttp://www.imdb.com/title/tt0800320/&lt;/a&gt;\n\nVideo\nID                               : 0\nFormat                           : MPEG-4 Visual\nFormat profile                   : Advanced Simple@L5\nFormat settings, BVOP            : Yes\nFormat settings, QPel            : No\nFormat settings, GMC             : No warppoints\nFormat settings, Matrix          : Default (H.263)\nCodec ID                         : XVID\nCodec ID/Hint                    : XviD\nDuration                         : 1h 46mn\nBit rate                         : 1 451 Kbps\nWidth                            : 640 pixels\nHeight                           : 272 pixels\nDisplay aspect ratio             : 2.35:1\nFrame rate                       : 25.000 fps\nResolution                       : 8 bits\nColorimetry                      : 4:2:0\nScan type                        : Progressive\nBits/(Pixel*Frame)               : 0.333\nStream size                      : 1.08 GiB (79%)\nWriting library                  : XviD 1.2.1 (UTC 2008-12-04)\n\nAudio\nID                               : 1\nFormat                           : AC-3\nFormat/Info                      : Audio Coding 3\nCodec ID                         : 2000\nDuration                         : 1h 46mn\nBit rate mode                    : Constant\nBit rate                         : 384 Kbps\nChannel(s)                       : 6 channels\nChannel positions                : Front: L C R, Side: L R, LFE\nSampling rate                    : 48.0 KHz\nStream size                      : 291 MiB (21%)\nAlignment                        : Split accross interleaves\nInterleave, duration             : 40 ms (1.00 video frame)\nInterleave, preload duration     : 500 ms\n\nSubtitles\nID                               : 3\nLanguage  #1                     : English","torrent":{"xt":"urn:btih:6187dbd44e26a45de4bdec068cb017fd3116c982","amp;dn":"Clash.Of.The.Titans.3D.DVDRip.XviD-VAMPS","amp;tr":["udp%3A%2F%2Ftracker.openbittorrent.com%3A80","udp%3A%2F%2Fopen.demonii.com%3A1337","udp%3A%2F%2Ftracker.coppersurfer.tk%3A6969","udp%3A%2F%2Fexodus.desync.com%3A6969"],"infoHash":"6187dbd44e26a45de4bdec068cb017fd3116c982","infoHashBuffer":{"type":"Buffer","data":[97,135,219,212,78,38,164,93,228,189,236,6,140,176,23,253,49,22,201,130]},"announce":[],"urlList":[]}}